<svg width="14" height="15" viewBox="0 0 14 15" fill="none" xmlns="http://www.w3.org/2000/svg">
<path d="M0.75 2.6205H0.56025C0.2505 2.6205 0 2.36925 0 2.06025C0 1.75125 0.2505 1.5 0.56025 1.5H4.5V0.75C4.5 0.34875 4.8555 0 5.25 0H8.25C8.6445 0 9 0.34875 9 0.75V1.5H12.9405C13.2495 1.5 13.5 1.75125 13.5 2.06025C13.5 2.36925 13.2495 2.6205 12.9405 2.6205H12.75V14.1968C12.75 14.64 12.414 15 12 15C9.84525 15 3.65475 15 1.5 15C1.086 15 0.75 14.64 0.75 14.1968V2.6205ZM11.625 2.6205H1.875V13.875H11.625V2.6205ZM8.4375 4.5C8.127 4.5 7.875 4.752 7.875 5.0625V11.4375C7.875 11.748 8.127 12 8.4375 12C8.748 12 9 11.748 9 11.4375V5.0625C9 4.752 8.748 4.5 8.4375 4.5ZM5.0625 4.5C4.752 4.5 4.5 4.752 4.5 5.0625V11.4375C4.5 11.748 4.752 12 5.0625 12C5.373 12 5.625 11.748 5.625 11.4375V5.0625C5.625 4.752 5.373 4.5 5.0625 4.5ZM7.875 1.5V1.125H5.625V1.5H7.875Z" fill="#030E20"/>
</svg>
