<svg width="16" height="14" viewBox="0 0 16 14" fill="none" xmlns="http://www.w3.org/2000/svg">
<path d="M7.4 2.33787C7.7184 2.33787 8 2.61154 8 2.92098C8 3.24285 7.7312 3.50408 7.4 3.50408C6.196 3.50408 1.2 3.50408 1.2 3.50408V12.8338H14.8V6.03088C14.8 5.709 15.0688 5.44777 15.4 5.44777C15.7312 5.44777 16 5.709 16 6.03088V13.2225C16 13.7053 15.5824 14 15.2 14H0.8C0.416 14 0 13.7053 0 13.2225V3.11534C0 2.74138 0.304 2.33787 0.8 2.33787H7.4ZM5.7912 7.41167C4.9552 9.74643 4.8008 10.094 4.8008 10.3972C4.8008 10.74 5.1088 10.8839 5.3024 10.8839C5.52 10.8839 6.1888 10.6499 8.3656 9.91281L5.7912 7.41167ZM6.5016 6.7205L9.0776 9.22397L15.804 2.69317C15.9344 2.56645 16 2.40007 16 2.23291C16 2.06731 15.9344 1.90093 15.804 1.77342C15.34 1.32404 14.6376 0.64064 14.1728 0.190481C14.0424 0.0637529 13.8712 0 13.7 0C13.5296 0 13.3576 0.0637529 13.2264 0.190481L6.5016 6.7205Z" fill="#030E20"/>
</svg>
