<svg width="15" height="15" viewBox="0 0 15 15" fill="none" xmlns="http://www.w3.org/2000/svg">
<path d="M7.5 15C7.19643 15 6.94214 14.8971 6.73714 14.6914C6.53143 14.4864 6.42857 14.2321 6.42857 13.9286V8.57143H1.07143C0.767857 8.57143 0.513214 8.46857 0.3075 8.26286C0.1025 8.05786 0 7.80357 0 7.5C0 7.19643 0.1025 6.94179 0.3075 6.73607C0.513214 6.53107 0.767857 6.42857 1.07143 6.42857H6.42857V1.07143C6.42857 0.767857 6.53143 0.513214 6.73714 0.3075C6.94214 0.1025 7.19643 0 7.5 0C7.80357 0 8.05821 0.1025 8.26393 0.3075C8.46893 0.513214 8.57143 0.767857 8.57143 1.07143V6.42857H13.9286C14.2321 6.42857 14.4864 6.53107 14.6914 6.73607C14.8971 6.94179 15 7.19643 15 7.5C15 7.80357 14.8971 8.05786 14.6914 8.26286C14.4864 8.46857 14.2321 8.57143 13.9286 8.57143H8.57143V13.9286C8.57143 14.2321 8.46893 14.4864 8.26393 14.6914C8.05821 14.8971 7.80357 15 7.5 15Z" fill="#4C5258"/>
</svg>
