<svg width="982" height="4" viewBox="0 0 982 4" fill="none" xmlns="http://www.w3.org/2000/svg">
<path d="M0.133333 2.00006C0.133333 3.03099 0.969069 3.86673 2 3.86673C3.03093 3.86673 3.86667 3.03099 3.86667 2.00006C3.86667 0.969129 3.03093 0.133394 2 0.133394C0.969068 0.133394 0.133333 0.96913 0.133333 2.00006ZM978.133 1.99998C978.133 3.03091 978.969 3.86664 980 3.86664C981.031 3.86664 981.867 3.03091 981.867 1.99998C981.867 0.969044 981.031 0.133309 980 0.133309C978.969 0.133309 978.133 0.969044 978.133 1.99998ZM2 2.35006L980 2.34998L980 1.64998L2 1.65006L2 2.35006Z" fill="#151821" fill-opacity="0.25"/>
</svg>
